<?xml version="1.0" standalone="no"?>
<!DOCTYPE svg PUBLIC "-//W3C//DTD SVG 20010904//EN"
 "http://www.w3.org/TR/2001/REC-SVG-20010904/DTD/svg10.dtd">
<svg version="1.0" xmlns="http://www.w3.org/2000/svg"
 width="512.000000pt" height="512.000000pt" viewBox="0 0 512.000000 512.000000"
 preserveAspectRatio="xMidYMid meet">
<metadata>
Created by potrace 1.14, written by Peter Selinger 2001-2017
</metadata>
<g transform="translate(0.000000,512.000000) scale(0.100000,-0.100000)"
fill="#000000" stroke="none">
<path d="M0 3684 l0 -1436 28 7 c15 4 32 8 37 9 6 1 16 5 22 9 7 5 30 3 50 -2
30 -9 41 -8 52 4 17 17 15 18 -79 15 l-55 -1 40 25 c22 14 44 26 48 26 4 0 20
11 35 25 15 14 43 30 62 36 19 7 54 23 78 37 31 17 59 25 97 26 67 1 85 -13
78 -62 -4 -33 -1 -42 34 -77 51 -52 149 -100 260 -126 105 -25 153 -44 153
-60 0 -21 -41 -79 -56 -79 -7 0 -49 -18 -91 -41 -73 -38 -86 -41 -197 -50 -66
-5 -128 -11 -138 -15 -16 -5 -18 -2 -13 19 l7 25 -80 -1 c-44 -1 -83 1 -86 4
-10 10 13 102 31 121 8 10 38 20 69 24 61 7 73 28 22 39 -18 4 -51 18 -73 30
-60 35 -125 52 -134 36 -5 -7 -25 -18 -47 -26 -47 -16 -54 -32 -17 -38 15 -2
-9 -2 -54 1 l-83 5 0 -505 c0 -492 1 -505 20 -523 25 -23 25 -35 0 -35 -17 0
-20 -7 -20 -46 l0 -47 69 7 c57 6 72 4 83 -9 36 -44 50 -55 68 -55 30 0 80
-28 80 -45 0 -8 1 -15 3 -15 1 0 56 -11 122 -25 98 -20 136 -24 205 -19 68 5
93 3 125 -10 22 -10 77 -19 125 -22 118 -6 171 -13 184 -23 26 -19 62 -18 134
5 83 26 117 25 127 -5 7 -23 55 -44 96 -43 16 0 27 -4 24 -9 -4 -5 -13 -9 -21
-9 -8 0 -12 -5 -9 -10 3 -6 41 -10 84 -10 43 0 100 -7 127 -15 68 -20 163 -20
194 2 17 12 57 19 139 24 64 5 163 13 221 19 58 6 120 8 138 5 28 -5 31 -8 22
-26 -15 -27 8 -34 170 -49 130 -13 137 -12 182 7 39 18 76 22 245 28 136 5
207 11 227 21 16 8 57 14 92 14 62 0 90 14 63 31 -8 5 -23 9 -34 9 -23 0 -52
16 -44 24 2 3 47 16 99 30 100 27 204 66 223 85 6 6 19 11 29 11 10 0 26 9 35
20 10 11 25 20 35 20 10 0 27 9 38 20 11 11 35 26 55 34 25 11 33 19 29 31 -4
9 2 25 11 35 15 16 31 20 86 20 72 0 124 14 114 30 -3 5 -18 10 -33 10 -40 0
-72 11 -72 24 0 18 61 71 108 95 42 22 52 22 255 18 238 -6 237 -6 237 -23 0
-37 138 -27 139 10 0 6 8 11 18 12 59 9 89 18 128 38 33 18 67 25 142 30 97 6
98 6 143 -24 25 -16 48 -30 53 -30 4 0 7 189 7 420 l0 420 -41 0 c-36 0 -40 2
-29 15 7 8 25 15 41 15 l29 0 0 1460 0 1460 -2560 0 -2560 0 0 -1436z m904
205 c21 -6 58 -12 81 -13 24 -1 55 -10 69 -19 32 -21 83 -22 103 -2 13 14 18
13 44 -2 16 -10 29 -24 29 -33 0 -18 53 -54 94 -64 16 -4 41 -20 56 -36 15
-16 45 -36 67 -45 25 -10 53 -34 77 -65 24 -31 50 -53 72 -60 29 -10 33 -15
28 -35 -4 -17 3 -31 33 -60 21 -21 48 -44 60 -52 17 -12 20 -21 16 -48 -5 -30
-2 -36 21 -46 16 -8 25 -18 22 -26 -3 -8 2 -17 12 -20 34 -12 53 -35 41 -50
-9 -10 -6 -19 15 -38 31 -29 33 -45 6 -68 -24 -20 -25 -40 -5 -61 13 -13 13
-15 -6 -21 -11 -4 -40 -20 -64 -36 -55 -37 -123 -40 -213 -10 -68 23 -112 27
-183 16 -31 -5 -59 -2 -93 9 -26 9 -52 13 -58 9 -21 -13 37 -25 135 -29 86 -4
102 -7 131 -29 18 -14 38 -25 44 -25 7 0 12 -5 12 -11 0 -7 -21 -8 -64 -4 -58
6 -68 5 -98 -16 -34 -25 -64 -27 -148 -13 -25 5 -60 8 -79 9 -28 0 -34 4 -36
22 -1 12 -15 36 -32 53 -20 21 -29 38 -26 51 4 12 0 19 -10 19 -8 0 -20 6 -26
14 -16 19 18 42 77 52 23 4 42 10 42 15 0 7 -16 12 -85 23 -57 9 -108 48 -101
78 2 11 -4 20 -16 24 -11 3 -18 13 -16 22 2 12 15 18 48 19 25 2 74 6 110 9
l65 6 -55 16 c-30 9 -74 16 -97 16 -49 1 -56 11 -16 21 36 9 46 25 27 46 -12
13 -13 22 -5 37 9 18 7 21 -25 26 -19 4 -44 4 -55 1 -21 -7 -73 30 -64 45 3 4
-2 13 -10 20 -8 7 -15 18 -15 24 0 12 28 40 43 43 72 14 86 26 43 37 -35 9
-86 54 -86 77 0 10 -10 23 -21 30 -17 9 -20 17 -16 44 3 18 1 37 -5 43 -7 7
-6 17 2 31 6 12 8 26 5 31 -8 13 50 13 99 -1z m-344 -184 c0 -28 -15 -34 -24
-9 -10 25 -7 34 9 34 9 0 15 -9 15 -25z m1919 -504 c9 -6 12 -19 7 -43 -6 -31
-4 -34 26 -43 63 -19 38 -45 -45 -45 -37 0 -38 1 -32 28 5 23 2 30 -16 38
l-21 10 27 32 c29 35 33 36 54 23z m137 -206 c16 -8 40 -15 54 -15 24 -1 24
-1 5 -16 -14 -10 -32 -13 -61 -8 -48 7 -84 -8 -84 -35 0 -17 -8 -19 -67 -18
-55 2 -68 -1 -68 -13 0 -24 -16 -30 -77 -30 -64 0 -108 -13 -108 -32 0 -8 -15
-22 -34 -32 -32 -17 -36 -17 -57 -2 -26 18 -55 21 -63 7 -3 -5 -3 -23 0 -39 5
-24 12 -32 33 -34 38 -4 41 -40 4 -57 -23 -11 -29 -10 -40 5 -7 10 -13 23 -13
28 0 6 -14 19 -30 28 -17 9 -30 24 -30 33 0 9 -9 15 -24 15 -19 0 -26 -7 -31
-29 -7 -35 7 -62 47 -85 29 -18 36 -44 17 -63 -9 -9 -6 -19 10 -41 27 -39 27
-41 -9 -53 -28 -10 -29 -13 -23 -54 5 -42 4 -44 -28 -58 -19 -8 -45 -26 -58
-40 l-23 -26 34 -14 c20 -8 50 -18 69 -22 19 -4 45 -12 58 -17 23 -8 23 -9 5
-23 -18 -14 -18 -15 4 -21 46 -13 20 -37 -58 -55 -41 -9 -93 -23 -115 -31 -37
-14 -38 -16 -17 -22 32 -11 204 4 222 19 12 9 41 9 143 -3 98 -12 133 -12 153
-3 33 15 24 27 -27 35 -56 9 -99 33 -99 55 0 35 55 68 125 75 82 8 99 14 85
31 -11 13 26 36 69 41 39 5 51 12 51 33 0 21 10 26 80 36 25 4 50 11 55 15 15
12 47 15 71 7 24 -9 74 7 74 23 0 6 -10 15 -22 20 -13 5 -17 9 -10 9 7 1 11 5
8 10 -3 5 20 20 52 34 32 14 66 32 75 42 15 14 17 14 17 1 0 -9 13 -18 34 -21
44 -9 77 1 69 21 -3 8 0 21 7 29 18 22 50 88 45 93 -2 3 10 12 28 21 41 21 49
51 13 52 -30 2 -33 2 -63 13 -18 6 -23 15 -23 42 0 27 4 34 20 34 11 0 20 4
20 10 0 6 9 6 25 0 20 -8 29 -6 46 11 17 17 29 20 69 16 39 -4 58 0 105 24 52
26 68 29 156 29 54 0 101 -4 104 -10 3 -5 20 -10 38 -10 32 0 137 -48 137 -63
0 -4 -6 -9 -12 -11 -71 -19 -157 -51 -173 -65 -11 -10 -49 -30 -85 -46 -36
-15 -80 -43 -99 -61 -30 -29 -33 -35 -20 -50 7 -9 14 -24 14 -33 4 -49 4 -48
66 -53 33 -2 64 -9 67 -14 4 -6 22 -19 40 -29 33 -20 48 -47 37 -65 -8 -14
-68 -41 -175 -80 -120 -44 -357 -162 -421 -211 -48 -36 -186 -87 -293 -109
-139 -27 -274 -42 -294 -31 -11 6 -25 5 -42 -4 -29 -15 -64 -22 -139 -30 -30
-3 -59 -12 -65 -20 -16 -21 -119 -34 -203 -24 -44 5 -95 4 -125 -1 -78 -15
-124 -12 -162 11 -36 21 -56 19 -56 -7 0 -21 -37 -17 -42 4 -4 16 -15 18 -69
16 -35 -1 -80 -5 -99 -9 -19 -3 -54 -3 -76 0 -35 5 -41 9 -37 26 4 15 -2 22
-26 30 -29 10 -31 14 -31 60 0 27 5 49 10 49 6 0 10 6 10 13 0 7 18 31 41 52
22 22 51 62 65 89 14 27 47 75 74 106 53 62 65 106 36 145 -12 16 -10 23 16
59 32 45 48 54 92 55 15 1 57 15 92 32 54 25 66 35 71 60 3 18 17 37 32 46 14
9 31 22 36 28 12 14 117 85 152 104 87 46 135 55 325 60 102 3 190 9 194 14
12 12 70 8 100 -8z m2409 -25 c-3 -5 -19 -10 -36 -10 -16 0 -29 5 -29 10 0 6
16 10 36 10 21 0 33 -4 29 -10z m-3650 -206 c38 -25 33 -62 -10 -80 -48 -20
-82 -18 -142 8 -70 31 -75 46 -13 40 43 -4 50 -2 65 22 20 31 62 35 100 10z
m-242 -33 c12 -12 -30 -44 -60 -44 -60 -1 -249 16 -263 24 -13 7 -13 8 0 13
54 20 304 25 323 7z m3860 -577 c-7 -19 -85 -54 -120 -54 -27 0 -116 -21 -238
-56 -150 -43 -256 -64 -326 -64 -43 0 -81 -6 -100 -15 -17 -9 -65 -17 -112
-20 -138 -6 -268 -22 -279 -33 -16 -16 31 -25 90 -18 35 4 54 2 68 -9 18 -14
18 -14 -6 -16 -14 -1 -39 -1 -56 0 -17 1 -48 -5 -69 -13 -35 -15 -38 -15 -70
9 -29 22 -34 24 -45 10 -10 -12 -24 -14 -59 -9 -25 3 -52 6 -58 7 -20 1 -15
14 7 20 11 3 24 16 29 29 13 34 29 45 112 74 53 18 110 28 199 35 362 26 479
41 642 78 176 40 372 73 390 64 4 -2 4 -11 1 -19z m-4828 -24 c17 -7 15 -9
-12 -9 -18 -1 -33 4 -33 9 0 12 17 12 45 0z m-135 -60 c0 -5 -4 -10 -10 -10
-5 0 -10 5 -10 10 0 6 5 10 10 10 6 0 10 -4 10 -10z m190 -65 c16 -19 -8 -30
-46 -21 -25 7 -26 8 -8 21 25 19 39 19 54 0z m1380 -45 c0 -5 -5 -10 -11 -10
-5 0 -7 5 -4 10 3 6 8 10 11 10 2 0 4 -4 4 -10z m111 -43 c-5 -5 -18 -7 -28
-3 -14 6 -15 9 -4 16 19 11 46 1 32 -13z m-945 -142 c3 -14 4 -39 0 -55 -5
-27 -1 -33 32 -54 20 -12 47 -26 60 -30 12 -4 42 -23 67 -41 24 -19 62 -43 84
-55 23 -11 41 -24 42 -28 1 -4 2 -22 4 -41 4 -47 19 -70 86 -124 32 -26 59
-52 59 -56 0 -19 -83 -69 -125 -76 -46 -6 -124 -44 -145 -70 -7 -8 -20 -15
-30 -15 -23 0 -67 -36 -57 -46 4 -4 51 0 105 9 53 10 123 17 156 17 32 0 98 5
146 12 99 13 253 0 337 -28 74 -25 193 -83 193 -94 0 -17 -33 -28 -95 -31
-141 -8 -503 1 -612 15 -235 29 -275 30 -305 7 -32 -25 -41 -26 -73 -5 -34 22
-32 49 4 65 24 11 28 17 20 30 -5 10 -9 22 -9 28 0 12 70 50 110 61 14 3 25
12 25 19 0 18 26 31 63 31 18 0 42 5 53 10 22 12 25 35 6 43 -25 9 -191 -10
-237 -27 -69 -27 -131 -37 -177 -30 -50 7 -70 -1 -52 -22 9 -11 8 -14 -5 -14
-9 0 -16 3 -16 8 0 12 -123 32 -202 32 -87 0 -112 11 -86 37 12 12 39 18 85
21 55 4 75 10 111 36 25 17 45 36 44 41 0 6 -12 19 -26 29 -23 18 -33 19 -96
10 -54 -8 -73 -7 -81 3 -17 20 -1 33 100 80 53 25 99 50 103 56 4 6 0 19 -8
28 -14 16 -14 20 1 43 14 21 15 29 5 41 -7 8 -10 21 -7 28 7 18 68 47 98 47
12 0 32 9 43 19 26 24 120 59 163 60 27 1 34 -3 39 -24z m2072 -142 c31 -28
36 -57 11 -79 -21 -19 -21 -19 -45 11 -26 33 -30 55 -12 73 16 16 22 15 46 -5z
m-248 -83 c0 -5 -18 -10 -41 -10 -24 0 -38 4 -34 10 3 6 22 10 41 10 19 0 34
-4 34 -10z m-147 -40 c15 0 27 -4 27 -10 0 -12 -55 -41 -64 -33 -3 4 -6 1 -6
-5 0 -10 38 -28 53 -24 4 1 15 -13 23 -32 16 -32 15 -35 -2 -59 -11 -14 -36
-33 -56 -43 -28 -12 -38 -23 -38 -40 0 -13 5 -26 10 -29 15 -9 49 -84 41 -90
-14 -8 -202 12 -214 24 -6 6 -38 11 -72 11 -36 0 -69 6 -81 14 -19 13 -127 35
-254 51 -30 4 -60 12 -67 17 -23 18 6 62 70 105 105 71 159 90 302 109 72 9
146 22 165 30 20 7 57 11 85 8 28 -2 62 -4 78 -4z m137 -149 c0 -6 -5 -13 -10
-16 -15 -9 -43 3 -35 15 8 13 45 13 45 1z m-435 -396 c28 -9 56 -20 63 -23 23
-12 12 -27 -16 -24 -42 5 -147 41 -168 58 -18 14 -16 14 26 11 25 -3 68 -12
95 -22z"/>
<path d="M1168 3353 c7 -3 16 -2 19 1 4 3 -2 6 -13 5 -11 0 -14 -3 -6 -6z"/>
<path d="M480 2141 c0 -5 6 -12 13 -14 6 -3 -6 -6 -28 -7 -53 -3 -95 -15 -75
-23 43 -16 230 -15 230 2 0 7 -111 51 -129 51 -6 0 -11 -4 -11 -9z"/>
<path d="M5090 1310 c-8 -5 -25 -10 -37 -10 -12 0 -25 -5 -28 -10 -12 -20 17
-40 56 -40 38 0 39 1 39 35 0 37 -5 41 -30 25z"/>
<path d="M5106 1114 c-5 -12 -24 -15 -103 -14 -54 1 -104 1 -110 1 -16 -1 -17
-47 -3 -56 6 -4 17 -1 25 5 10 8 15 9 15 2 0 -6 8 -13 19 -17 10 -3 30 -16 43
-28 39 -34 65 -47 98 -47 l30 0 0 85 c0 85 -3 99 -14 69z"/>
<path d="M220 893 c-8 -3 -28 -11 -45 -18 -54 -23 -65 -25 -92 -14 -33 12 -55
5 -46 -17 6 -17 4 -17 148 3 50 6 68 16 71 37 2 16 -9 19 -36 9z"/>
<path d="M3438 853 c-9 -2 -19 -12 -23 -21 -13 -35 60 -55 120 -32 20 7 26 16
23 33 -3 19 -9 22 -53 24 -27 0 -57 -1 -67 -4z"/>
<path d="M18 743 c-10 -2 -18 -10 -18 -17 0 -17 72 -6 78 12 4 12 -24 15 -60
5z"/>
<path d="M0 295 l1 -295 426 0 c371 0 424 2 413 15 -16 19 -4 35 25 35 42 0
41 26 -2 49 -12 6 -39 11 -60 11 -47 0 -83 9 -83 21 0 5 34 9 76 9 66 0 79 3
95 22 11 11 19 24 19 28 0 17 -28 30 -67 30 -24 0 -43 4 -43 10 0 18 -59 40
-108 40 -54 0 -81 17 -59 39 17 17 -8 31 -57 31 l-39 0 23 20 c12 11 30 22 40
25 23 7 34 36 18 47 -7 4 -23 8 -35 8 -27 0 -112 19 -134 30 -9 5 -42 11 -75
15 -32 4 -84 15 -114 25 -30 10 -68 21 -85 25 -16 3 -48 14 -70 24 -22 11 -55
21 -73 25 l-33 6 1 -295z"/>
</g>
</svg>
